<svg viewBox="0 0 512 512" fill="none" xmlns="http://www.w3.org/2000/svg">
<path d="M473.655 88H38.345C17.167 88 0 105.167 0 126.345V385.105C0 406.282 17.167 423.45 38.345 423.45H473.655C494.832 423.45 512 406.283 512 385.105V126.345C512 105.167 494.833 88 473.655 88Z" fill="#FCFCFC"/>
<path d="M352 226.076C346.831 226.076 340.431 226.076 329.846 226.076C329.846 266.86 296.783 299.922 256 299.922C215.215 299.922 182.154 266.86 182.154 226.076C175.016 226.076 167.138 226.076 160 226.076C160 270.007 189.509 307.045 229.787 318.453C225.372 326.842 226.044 337.404 232.351 345.275C240.636 338.635 249.215 331.76 256.492 325.929C263.769 331.76 272.347 338.634 280.633 345.275C287.004 337.325 287.631 326.629 283.067 318.2C322.905 306.513 352 269.695 352 226.076Z" fill="#6DA544"/>
<path d="M196.923 218.692C196.923 218.692 196.923 255.615 233.846 255.615L241.231 263H256C256 263 263.385 240.846 278.154 240.846C278.154 240.846 278.154 226.077 292.923 226.077C307.692 226.077 315.077 226.077 315.077 226.077C315.077 226.077 307.692 196.539 344.615 174.385L329.846 167C329.846 167 278.154 203.923 241.231 196.538V211.307H226.462L219.077 203.922L196.923 218.692Z" fill="#FFDA44"/>
</svg>
