<svg viewBox="0 0 289 289" fill="none" xmlns="http://www.w3.org/2000/svg">
<mask id="mask0" mask-type="alpha" maskUnits="userSpaceOnUse" x="0" y="50" width="289" height="189">
<rect y="50" width="289" height="189" rx="22" fill="#C4C4C4"/>
</mask>
<g mask="url(#mask0)">
<path d="M110.139 296.872C194.163 296.872 262.278 228.624 262.278 144.436C262.278 60.248 194.163 -8 110.139 -8C26.115 -8 -42 60.248 -42 144.436C-42 228.624 26.115 296.872 110.139 296.872Z" fill="#F0F0F0"/>
<path fill-rule="evenodd" clip-rule="evenodd" d="M214.755 -8C241.654 -8 266.916 -0.996273 288.841 11.276V277.596C266.915 289.869 241.654 296.872 214.755 296.872C130.732 296.872 62.6163 228.624 62.6163 144.436C62.6163 60.2486 130.732 -8 214.755 -8Z" fill="#6DA544"/>
<path fill-rule="evenodd" clip-rule="evenodd" d="M36.5015 11.0242C26.9304 16.3386 17.9934 22.6552 9.82779 29.8364C10.6539 29.1111 11.4877 28.3942 12.328 27.6868L128.848 144.435L12.3274 261.183C11.4865 260.476 10.6533 259.759 9.82779 259.034C17.9928 266.215 26.9304 272.531 36.5009 277.846L262.278 144.435L36.5015 11.0242Z" fill="#F0F0F0"/>
<path fill-rule="evenodd" clip-rule="evenodd" d="M23.6517 19.0234C19.0121 22.2425 14.5561 25.7062 10.3092 29.4082L110.139 144.437L10.3092 259.465C14.5555 263.167 19.0115 266.632 23.6511 269.85L236.235 144.437L23.6517 19.0234Z" fill="#FFDA44"/>
<path fill-rule="evenodd" clip-rule="evenodd" d="M12.3274 27.6877C8.94529 30.5352 5.68144 33.5202 2.56021 36.6469L96.9096 144.436L2.56021 252.225C5.68144 255.352 8.9447 258.338 12.3274 261.184L128.848 144.436L12.3274 27.6877Z" fill="black"/>
<path fill-rule="evenodd" clip-rule="evenodd" d="M2.56042 36.6474C-56.8535 96.1773 -56.8535 192.695 2.56042 252.226C27.1125 227.626 50.7255 203.966 110.139 144.437L2.56042 36.6474Z" fill="#D80027"/>
</g>
</svg>
