<svg viewBox="0 0 289 289" fill="none" xmlns="http://www.w3.org/2000/svg">
<mask id="mask0" mask-type="alpha" maskUnits="userSpaceOnUse" x="0" y="50" width="289" height="189">
<rect y="50" width="289" height="189" rx="22" fill="#C4C4C4"/>
</mask>
<g mask="url(#mask0)">
<path d="M-15.75 83.1668C-28.0827 103.073 -35 125.406 -35 149C-35 172.594 -28.0827 194.927 -15.75 214.833L159 228L333.75 214.833C346.083 194.927 353 172.594 353 149C353 125.406 346.083 103.073 333.75 83.1668L159 70L-15.75 83.1668Z" fill="#F0F0F0"/>
<path d="M-70 199C-33.2787 241.018 44.49 270 134.5 270C224.51 270 302.279 241.018 339 199H-70Z" fill="#496E2D"/>
<path d="M-70 89H344C306.83 46.9822 228.111 18 137 18C45.8887 18 -32.8298 46.9822 -70 89Z" fill="black"/>
<path d="M1.90446 54.9042C-47.3015 104.11 -47.3015 183.889 1.90446 233.096C22.2382 212.762 41.7943 193.206 91.0002 144L1.90446 54.9042Z" fill="#D80027"/>
<path d="M123.87 144C123.87 125.642 136.772 110.306 154 106.544C151.352 105.966 148.605 105.652 145.783 105.652C124.604 105.652 107.435 122.821 107.435 144C107.435 165.179 124.604 182.348 145.783 182.348C148.605 182.348 151.352 182.034 154 181.456C136.772 177.694 123.87 162.358 123.87 144Z" fill="#D80027"/>
<path d="M155.611 119.348L161.051 136.089H178.652L164.412 146.434L169.852 163.174L155.611 152.828L141.372 163.174L146.812 146.434L132.571 136.089H150.172L155.611 119.348Z" fill="#D80027"/>
</g>
</svg>
